<?xml version="1.0" encoding="us-ascii" standalone="no"?><svg xmlns="http://www.w3.org/2000/svg" xmlns:xlink="http://www.w3.org/1999/xlink" contentStyleType="text/css" height="576px" preserveAspectRatio="none" style="width:1715px;height:576px;background:#FFFFFF;" version="1.1" viewBox="0 0 1715 576" width="1715px" zoomAndPan="magnify"><defs/><g><!--class EmployeeRoute--><g id="elem_EmployeeRoute"><rect codeLine="3" fill="#F1F1F1" height="64.4883" id="EmployeeRoute" rx="2.5" ry="2.5" style="stroke:#181818;stroke-width:0.5;" width="262" x="7" y="196.22"/><ellipse cx="80.75" cy="212.22" fill="#ADD1B2" rx="11" ry="11" style="stroke:#181818;stroke-width:1.0;"/><path d="M83.2231,218.3631 Q82.6421,218.6619 82.0029,218.8113 Q81.3638,218.9607 80.6582,218.9607 Q78.1514,218.9607 76.8315,217.3089 Q75.5117,215.657 75.5117,212.5359 Q75.5117,209.4065 76.8315,207.7547 Q78.1514,206.1028 80.6582,206.1028 Q81.3638,206.1028 82.0112,206.2522 Q82.6587,206.4016 83.2231,206.7005 L83.2231,209.4231 Q82.5923,208.8421 81.9988,208.5723 Q81.4053,208.3025 80.7744,208.3025 Q79.4297,208.3025 78.7449,209.3692 Q78.0601,210.4358 78.0601,212.5359 Q78.0601,214.6277 78.7449,215.6944 Q79.4297,216.761 80.7744,216.761 Q81.4053,216.761 81.9988,216.4912 Q82.5923,216.2215 83.2231,215.6404 Z " fill="#000000"/><text fill="#000000" font-family="sans-serif" font-size="14" lengthAdjust="spacing" textLength="106" x="101.25" y="217.511">EmployeeRoute</text><line style="stroke:#181818;stroke-width:0.5;" x1="8" x2="268" y1="228.22" y2="228.22"/><rect fill="none" height="6" style="stroke:#C82930;stroke-width:1.0;" width="6" x="15" y="238.9641"/><text fill="#000000" font-family="sans-serif" font-size="14" lengthAdjust="spacing" textLength="236" x="27" y="245.7552">employeeService: EmployeeService</text><line style="stroke:#181818;stroke-width:0.5;" x1="8" x2="268" y1="252.7083" y2="252.7083"/></g><!--class EmployeService--><g id="elem_EmployeService"><rect codeLine="7" fill="#F1F1F1" height="146.9297" id="EmployeService" rx="2.5" ry="2.5" style="stroke:#181818;stroke-width:0.5;" width="308" x="329" y="29"/><ellipse cx="425.75" cy="45" fill="#ADD1B2" rx="11" ry="11" style="stroke:#181818;stroke-width:1.0;"/><path d="M428.2231,51.1431 Q427.6421,51.4419 427.0029,51.5913 Q426.3638,51.7407 425.6582,51.7407 Q423.1514,51.7407 421.8315,50.0889 Q420.5117,48.437 420.5117,45.3159 Q420.5117,42.1865 421.8315,40.5347 Q423.1514,38.8828 425.6582,38.8828 Q426.3638,38.8828 427.0112,39.0322 Q427.6587,39.1816 428.2231,39.4805 L428.2231,42.2031 Q427.5923,41.6221 426.9988,41.3523 Q426.4053,41.0825 425.7744,41.0825 Q424.4297,41.0825 423.7449,42.1492 Q423.0601,43.2158 423.0601,45.3159 Q423.0601,47.4077 423.7449,48.4744 Q424.4297,49.541 425.7744,49.541 Q426.4053,49.541 426.9988,49.2712 Q427.5923,49.0015 428.2231,48.4204 Z " fill="#000000"/><text fill="#000000" font-family="sans-serif" font-size="14" lengthAdjust="spacing" textLength="106" x="446.25" y="50.291">EmployeService</text><line style="stroke:#181818;stroke-width:0.5;" x1="330" x2="636" y1="61" y2="61"/><line style="stroke:#181818;stroke-width:0.5;" x1="330" x2="636" y1="69" y2="69"/><ellipse cx="340" cy="82.7441" fill="#84BE84" rx="3" ry="3" style="stroke:#038048;stroke-width:1.0;"/><text fill="#000000" font-family="sans-serif" font-size="14" lengthAdjust="spacing" textLength="258" x="349" y="86.5352">createEmployee(employee: Employee)</text><ellipse cx="340" cy="99.2324" fill="#84BE84" rx="3" ry="3" style="stroke:#038048;stroke-width:1.0;"/><text fill="#000000" font-family="sans-serif" font-size="14" lengthAdjust="spacing" textLength="264" x="349" y="103.0234">updateEmployee(employee: Employee)</text><ellipse cx="340" cy="115.7207" fill="#84BE84" rx="3" ry="3" style="stroke:#038048;stroke-width:1.0;"/><text fill="#000000" font-family="sans-serif" font-size="14" lengthAdjust="spacing" textLength="258" x="349" y="119.5117">deleteEmployee(employee: Employee)</text><ellipse cx="340" cy="132.209" fill="#84BE84" rx="3" ry="3" style="stroke:#038048;stroke-width:1.0;"/><text fill="#000000" font-family="sans-serif" font-size="14" lengthAdjust="spacing" textLength="105" x="349" y="136">getEmployees()</text><ellipse cx="340" cy="148.6973" fill="#84BE84" rx="3" ry="3" style="stroke:#038048;stroke-width:1.0;"/><text fill="#000000" font-family="sans-serif" font-size="14" lengthAdjust="spacing" textLength="129" x="349" y="152.4883">getAppointments()</text><ellipse cx="340" cy="165.1855" fill="#84BE84" rx="3" ry="3" style="stroke:#038048;stroke-width:1.0;"/><text fill="#000000" font-family="sans-serif" font-size="14" lengthAdjust="spacing" textLength="282" x="349" y="168.9766">getAppointment(AppointementId: String)</text></g><!--class Employee--><g id="elem_Employee"><rect codeLine="16" fill="#F1F1F1" height="212.8828" id="Employee" rx="2.5" ry="2.5" style="stroke:#181818;stroke-width:0.5;" width="360" x="697" y="84.02"/><ellipse cx="839.75" cy="100.02" fill="#ADD1B2" rx="11" ry="11" style="stroke:#181818;stroke-width:1.0;"/><path d="M842.2231,106.1631 Q841.6421,106.4619 841.0029,106.6113 Q840.3638,106.7607 839.6582,106.7607 Q837.1514,106.7607 835.8315,105.1089 Q834.5117,103.457 834.5117,100.3359 Q834.5117,97.2065 835.8315,95.5547 Q837.1514,93.9028 839.6582,93.9028 Q840.3638,93.9028 841.0112,94.0522 Q841.6587,94.2016 842.2231,94.5005 L842.2231,97.2231 Q841.5923,96.6421 840.9988,96.3723 Q840.4053,96.1025 839.7744,96.1025 Q838.4297,96.1025 837.7449,97.1692 Q837.0601,98.2358 837.0601,100.3359 Q837.0601,102.4277 837.7449,103.4944 Q838.4297,104.561 839.7744,104.561 Q840.4053,104.561 840.9988,104.2912 Q841.5923,104.0215 842.2231,103.4404 Z " fill="#000000"/><text fill="#000000" font-family="sans-serif" font-size="14" lengthAdjust="spacing" textLength="66" x="860.25" y="105.311">Employee</text><line style="stroke:#181818;stroke-width:0.5;" x1="698" x2="1056" y1="116.02" y2="116.02"/><rect fill="none" height="6" style="stroke:#C82930;stroke-width:1.0;" width="6" x="705" y="126.7641"/><text fill="#000000" font-family="sans-serif" font-size="14" lengthAdjust="spacing" textLength="86" x="717" y="133.5552">name: string</text><rect fill="none" height="6" style="stroke:#C82930;stroke-width:1.0;" width="6" x="705" y="143.2524"/><text fill="#000000" font-family="sans-serif" font-size="14" lengthAdjust="spacing" textLength="85" x="717" y="150.0434">email: string</text><rect fill="none" height="6" style="stroke:#C82930;stroke-width:1.0;" width="6" x="705" y="159.7407"/><text fill="#000000" font-family="sans-serif" font-size="14" lengthAdjust="spacing" textLength="114" x="717" y="166.5317">password: string</text><rect fill="none" height="6" style="stroke:#C82930;stroke-width:1.0;" width="6" x="705" y="176.229"/><text fill="#000000" font-family="sans-serif" font-size="14" lengthAdjust="spacing" textLength="102" x="717" y="183.02">address: string</text><rect fill="none" height="6" style="stroke:#C82930;stroke-width:1.0;" width="6" x="705" y="192.7173"/><text fill="#000000" font-family="sans-serif" font-size="14" lengthAdjust="spacing" textLength="110" x="717" y="199.5083">company: string</text><rect fill="none" height="6" style="stroke:#C82930;stroke-width:1.0;" width="6" x="705" y="209.2055"/><text fill="#000000" font-family="sans-serif" font-size="14" lengthAdjust="spacing" textLength="205" x="717" y="215.9966">Appointments: Appointment[]</text><line style="stroke:#181818;stroke-width:0.5;" x1="698" x2="1056" y1="222.9497" y2="222.9497"/><ellipse cx="708" cy="236.6938" fill="#84BE84" rx="3" ry="3" style="stroke:#038048;stroke-width:1.0;"/><text fill="#000000" font-family="sans-serif" font-size="14" lengthAdjust="spacing" textLength="328" x="717" y="240.4848">createAppointment(appointment: Appointment)</text><ellipse cx="708" cy="253.1821" fill="#84BE84" rx="3" ry="3" style="stroke:#038048;stroke-width:1.0;"/><text fill="#000000" font-family="sans-serif" font-size="14" lengthAdjust="spacing" textLength="329" x="717" y="256.9731">cancelAppointment(appointment: Appointment)</text><ellipse cx="708" cy="269.6704" fill="#84BE84" rx="3" ry="3" style="stroke:#038048;stroke-width:1.0;"/><text fill="#000000" font-family="sans-serif" font-size="14" lengthAdjust="spacing" textLength="334" x="717" y="273.4614">updateAppointment(appointment: Appointment)</text><ellipse cx="708" cy="286.1587" fill="#84BE84" rx="3" ry="3" style="stroke:#038048;stroke-width:1.0;"/><text fill="#000000" font-family="sans-serif" font-size="14" lengthAdjust="spacing" textLength="129" x="717" y="289.9497">getAppointments()</text></g><!--class Service--><g id="elem_Service"><rect codeLine="33" fill="#F1F1F1" height="146.9297" id="Service" rx="2.5" ry="2.5" style="stroke:#181818;stroke-width:0.5;" width="241" x="1467" y="25"/><ellipse cx="1559.25" cy="41" fill="#ADD1B2" rx="11" ry="11" style="stroke:#181818;stroke-width:1.0;"/><path d="M1561.7231,47.1431 Q1561.1421,47.4419 1560.5029,47.5913 Q1559.8638,47.7407 1559.1582,47.7407 Q1556.6514,47.7407 1555.3315,46.0889 Q1554.0117,44.437 1554.0117,41.3159 Q1554.0117,38.1865 1555.3315,36.5347 Q1556.6514,34.8828 1559.1582,34.8828 Q1559.8638,34.8828 1560.5112,35.0322 Q1561.1587,35.1816 1561.7231,35.4805 L1561.7231,38.2031 Q1561.0923,37.6221 1560.4988,37.3523 Q1559.9053,37.0825 1559.2744,37.0825 Q1557.9297,37.0825 1557.2449,38.1492 Q1556.5601,39.2158 1556.5601,41.3159 Q1556.5601,43.4077 1557.2449,44.4744 Q1557.9297,45.541 1559.2744,45.541 Q1559.9053,45.541 1560.4988,45.2712 Q1561.0923,45.0015 1561.7231,44.4204 Z " fill="#000000"/><text fill="#000000" font-family="sans-serif" font-size="14" lengthAdjust="spacing" textLength="48" x="1579.75" y="46.291">Service</text><line style="stroke:#181818;stroke-width:0.5;" x1="1468" x2="1707" y1="57" y2="57"/><rect fill="none" height="6" style="stroke:#C82930;stroke-width:1.0;" width="6" x="1475" y="67.7441"/><text fill="#000000" font-family="sans-serif" font-size="14" lengthAdjust="spacing" textLength="86" x="1487" y="74.5352">name: string</text><rect fill="none" height="6" style="stroke:#C82930;stroke-width:1.0;" width="6" x="1475" y="84.2324"/><text fill="#000000" font-family="sans-serif" font-size="14" lengthAdjust="spacing" textLength="125" x="1487" y="91.0234">description: string</text><rect fill="none" height="6" style="stroke:#C82930;stroke-width:1.0;" width="6" x="1475" y="100.7207"/><text fill="#000000" font-family="sans-serif" font-size="14" lengthAdjust="spacing" textLength="73" x="1487" y="107.5117">price: float</text><rect fill="none" height="6" style="stroke:#C82930;stroke-width:1.0;" width="6" x="1475" y="117.209"/><text fill="#000000" font-family="sans-serif" font-size="14" lengthAdjust="spacing" textLength="97" x="1487" y="124">duration: time</text><line style="stroke:#181818;stroke-width:0.5;" x1="1468" x2="1707" y1="130.9531" y2="130.9531"/><ellipse cx="1478" cy="144.6973" fill="#84BE84" rx="3" ry="3" style="stroke:#038048;stroke-width:1.0;"/><text fill="#000000" font-family="sans-serif" font-size="14" lengthAdjust="spacing" textLength="164" x="1487" y="148.4883">updatePrice(price: float)</text><ellipse cx="1478" cy="161.1855" fill="#84BE84" rx="3" ry="3" style="stroke:#038048;stroke-width:1.0;"/><text fill="#000000" font-family="sans-serif" font-size="14" lengthAdjust="spacing" textLength="215" x="1487" y="164.9766">updateDuration(duration: time)</text></g><!--class AppointmentRoute--><g id="elem_AppointmentRoute"><rect codeLine="43" fill="#F1F1F1" height="80.9766" id="AppointmentRoute" rx="2.5" ry="2.5" style="stroke:#181818;stroke-width:0.5;" width="226" x="764" y="351.98"/><ellipse cx="807.8" cy="367.98" fill="#ADD1B2" rx="11" ry="11" style="stroke:#181818;stroke-width:1.0;"/><path d="M810.2731,374.1231 Q809.6921,374.4219 809.0529,374.5713 Q808.4138,374.7207 807.7082,374.7207 Q805.2014,374.7207 803.8815,373.0689 Q802.5617,371.417 802.5617,368.2959 Q802.5617,365.1665 803.8815,363.5147 Q805.2014,361.8628 807.7082,361.8628 Q808.4138,361.8628 809.0612,362.0122 Q809.7087,362.1616 810.2731,362.4605 L810.2731,365.1831 Q809.6423,364.6021 809.0488,364.3323 Q808.4553,364.0625 807.8244,364.0625 Q806.4797,364.0625 805.7949,365.1292 Q805.1101,366.1958 805.1101,368.2959 Q805.1101,370.3877 805.7949,371.4544 Q806.4797,372.521 807.8244,372.521 Q808.4553,372.521 809.0488,372.2512 Q809.6423,371.9815 810.2731,371.4004 Z " fill="#000000"/><text fill="#000000" font-family="sans-serif" font-size="14" lengthAdjust="spacing" textLength="130" x="828.2" y="373.271">AppointmentRoute</text><line style="stroke:#181818;stroke-width:0.5;" x1="765" x2="989" y1="383.98" y2="383.98"/><rect fill="none" height="6" style="stroke:#C82930;stroke-width:1.0;" width="6" x="772" y="394.7241"/><text fill="#000000" font-family="sans-serif" font-size="14" lengthAdjust="spacing" textLength="132" x="784" y="401.5152">DataBase: DataBase</text><text fill="#000000" font-family="sans-serif" font-size="14" lengthAdjust="spacing" textLength="200" x="784" y="418.0034">ServiceService: ServiceService</text><line style="stroke:#181818;stroke-width:0.5;" x1="765" x2="989" y1="424.9566" y2="424.9566"/></g><!--class ServiceService--><g id="elem_ServiceService"><rect codeLine="48" fill="#F1F1F1" height="113.9531" id="ServiceService" rx="2.5" ry="2.5" style="stroke:#181818;stroke-width:0.5;" width="235" x="1144.5" y="356.49"/><ellipse cx="1209.75" cy="372.49" fill="#ADD1B2" rx="11" ry="11" style="stroke:#181818;stroke-width:1.0;"/><path d="M1212.2231,378.6331 Q1211.6421,378.9319 1211.0029,379.0813 Q1210.3638,379.2307 1209.6582,379.2307 Q1207.1514,379.2307 1205.8315,377.5789 Q1204.5117,375.927 1204.5117,372.8059 Q1204.5117,369.6765 1205.8315,368.0247 Q1207.1514,366.3728 1209.6582,366.3728 Q1210.3638,366.3728 1211.0112,366.5222 Q1211.6587,366.6716 1212.2231,366.9705 L1212.2231,369.6931 Q1211.5923,369.1121 1210.9988,368.8423 Q1210.4053,368.5725 1209.7744,368.5725 Q1208.4297,368.5725 1207.7449,369.6392 Q1207.0601,370.7058 1207.0601,372.8059 Q1207.0601,374.8977 1207.7449,375.9644 Q1208.4297,377.031 1209.7744,377.031 Q1210.4053,377.031 1210.9988,376.7612 Q1211.5923,376.4915 1212.2231,375.9104 Z " fill="#000000"/><text fill="#000000" font-family="sans-serif" font-size="14" lengthAdjust="spacing" textLength="96" x="1230.25" y="377.781">ServiceService</text><line style="stroke:#181818;stroke-width:0.5;" x1="1145.5" x2="1378.5" y1="388.49" y2="388.49"/><line style="stroke:#181818;stroke-width:0.5;" x1="1145.5" x2="1378.5" y1="396.49" y2="396.49"/><ellipse cx="1155.5" cy="410.2341" fill="#84BE84" rx="3" ry="3" style="stroke:#038048;stroke-width:1.0;"/><text fill="#000000" font-family="sans-serif" font-size="14" lengthAdjust="spacing" textLength="203" x="1164.5" y="414.0252">createService(service: Service)</text><ellipse cx="1155.5" cy="426.7224" fill="#84BE84" rx="3" ry="3" style="stroke:#038048;stroke-width:1.0;"/><text fill="#000000" font-family="sans-serif" font-size="14" lengthAdjust="spacing" textLength="209" x="1164.5" y="430.5134">updateService(service: Service)</text><ellipse cx="1155.5" cy="443.2107" fill="#84BE84" rx="3" ry="3" style="stroke:#038048;stroke-width:1.0;"/><text fill="#000000" font-family="sans-serif" font-size="14" lengthAdjust="spacing" textLength="203" x="1164.5" y="447.0017">deleteService(service: Service)</text><ellipse cx="1155.5" cy="459.699" fill="#84BE84" rx="3" ry="3" style="stroke:#038048;stroke-width:1.0;"/><text fill="#000000" font-family="sans-serif" font-size="14" lengthAdjust="spacing" textLength="87" x="1164.5" y="463.49">getServices()</text></g><!--class Appointment--><g id="elem_Appointment"><rect codeLine="55" fill="#F1F1F1" height="262.3477" id="Appointment" rx="2.5" ry="2.5" style="stroke:#181818;stroke-width:0.5;" width="290" x="1117" y="59.29"/><ellipse cx="1212.75" cy="75.29" fill="#ADD1B2" rx="11" ry="11" style="stroke:#181818;stroke-width:1.0;"/><path d="M1215.2231,81.4331 Q1214.6421,81.7319 1214.0029,81.8813 Q1213.3638,82.0307 1212.6582,82.0307 Q1210.1514,82.0307 1208.8315,80.3789 Q1207.5117,78.727 1207.5117,75.6059 Q1207.5117,72.4765 1208.8315,70.8247 Q1210.1514,69.1728 1212.6582,69.1728 Q1213.3638,69.1728 1214.0112,69.3222 Q1214.6587,69.4716 1215.2231,69.7705 L1215.2231,72.4931 Q1214.5923,71.9121 1213.9988,71.6423 Q1213.4053,71.3725 1212.7744,71.3725 Q1211.4297,71.3725 1210.7449,72.4392 Q1210.0601,73.5058 1210.0601,75.6059 Q1210.0601,77.6977 1210.7449,78.7644 Q1211.4297,79.831 1212.7744,79.831 Q1213.4053,79.831 1213.9988,79.5612 Q1214.5923,79.2915 1215.2231,78.7104 Z " fill="#000000"/><text fill="#000000" font-family="sans-serif" font-size="14" lengthAdjust="spacing" textLength="90" x="1233.25" y="80.581">Appointment</text><line style="stroke:#181818;stroke-width:0.5;" x1="1118" x2="1406" y1="91.29" y2="91.29"/><rect fill="none" height="6" style="stroke:#C82930;stroke-width:1.0;" width="6" x="1125" y="102.0341"/><text fill="#000000" font-family="sans-serif" font-size="14" lengthAdjust="spacing" textLength="39" x="1137" y="108.8252">id: int</text><rect fill="none" height="6" style="stroke:#C82930;stroke-width:1.0;" width="6" x="1125" y="118.5224"/><text fill="#000000" font-family="sans-serif" font-size="14" lengthAdjust="spacing" textLength="68" x="1137" y="125.3134">date: date</text><rect fill="none" height="6" style="stroke:#C82930;stroke-width:1.0;" width="6" x="1125" y="135.0107"/><text fill="#000000" font-family="sans-serif" font-size="14" lengthAdjust="spacing" textLength="68" x="1137" y="141.8017">time: time</text><rect fill="none" height="6" style="stroke:#C82930;stroke-width:1.0;" width="6" x="1125" y="151.499"/><text fill="#000000" font-family="sans-serif" font-size="14" lengthAdjust="spacing" textLength="103" x="1137" y="158.29">location: string</text><rect fill="none" height="6" style="stroke:#C82930;stroke-width:1.0;" width="6" x="1125" y="167.9873"/><text fill="#000000" font-family="sans-serif" font-size="14" lengthAdjust="spacing" textLength="125" x="1137" y="174.7783">description: string</text><rect fill="none" height="6" style="stroke:#C82930;stroke-width:1.0;" width="6" x="1125" y="184.4755"/><text fill="#000000" font-family="sans-serif" font-size="14" lengthAdjust="spacing" textLength="140" x="1137" y="191.2666">employee: Employee</text><rect fill="none" height="6" style="stroke:#C82930;stroke-width:1.0;" width="6" x="1125" y="200.9638"/><text fill="#000000" font-family="sans-serif" font-size="14" lengthAdjust="spacing" textLength="103" x="1137" y="207.7548">service: Service</text><line style="stroke:#181818;stroke-width:0.5;" x1="1118" x2="1406" y1="214.708" y2="214.708"/><ellipse cx="1128" cy="228.4521" fill="#84BE84" rx="3" ry="3" style="stroke:#038048;stroke-width:1.0;"/><text fill="#000000" font-family="sans-serif" font-size="14" lengthAdjust="spacing" textLength="157" x="1137" y="232.2431">updateDate(date: date)</text><ellipse cx="1128" cy="244.9404" fill="#84BE84" rx="3" ry="3" style="stroke:#038048;stroke-width:1.0;"/><text fill="#000000" font-family="sans-serif" font-size="14" lengthAdjust="spacing" textLength="160" x="1137" y="248.7314">updateTime(time: time)</text><ellipse cx="1128" cy="261.4287" fill="#84BE84" rx="3" ry="3" style="stroke:#038048;stroke-width:1.0;"/><text fill="#000000" font-family="sans-serif" font-size="14" lengthAdjust="spacing" textLength="219" x="1137" y="265.2197">updateLocation(location: string)</text><ellipse cx="1128" cy="277.917" fill="#84BE84" rx="3" ry="3" style="stroke:#038048;stroke-width:1.0;"/><text fill="#000000" font-family="sans-serif" font-size="14" lengthAdjust="spacing" textLength="261" x="1137" y="281.708">updateDescription(description: string)</text><ellipse cx="1128" cy="294.4052" fill="#84BE84" rx="3" ry="3" style="stroke:#038048;stroke-width:1.0;"/><text fill="#000000" font-family="sans-serif" font-size="14" lengthAdjust="spacing" textLength="209" x="1137" y="298.1963">updateService(service: Service)</text><ellipse cx="1128" cy="310.8935" fill="#84BE84" rx="3" ry="3" style="stroke:#038048;stroke-width:1.0;"/><text fill="#000000" font-family="sans-serif" font-size="14" lengthAdjust="spacing" textLength="264" x="1137" y="314.6845">updateEmployee(employee: Employee)</text></g><!--class CompanyRoute--><g id="elem_CompanyRoute"><rect codeLine="73" fill="#F1F1F1" height="113.9531" id="CompanyRoute" rx="2.5" ry="2.5" style="stroke:#181818;stroke-width:0.5;" width="137" x="414.5" y="299.49"/><ellipse cx="429.5" cy="315.49" fill="#ADD1B2" rx="11" ry="11" style="stroke:#181818;stroke-width:1.0;"/><path d="M431.9731,321.6331 Q431.3921,321.9319 430.7529,322.0813 Q430.1138,322.2307 429.4082,322.2307 Q426.9014,322.2307 425.5815,320.5789 Q424.2617,318.927 424.2617,315.8059 Q424.2617,312.6765 425.5815,311.0247 Q426.9014,309.3728 429.4082,309.3728 Q430.1138,309.3728 430.7612,309.5222 Q431.4087,309.6716 431.9731,309.9705 L431.9731,312.6931 Q431.3423,312.1121 430.7488,311.8423 Q430.1553,311.5725 429.5244,311.5725 Q428.1797,311.5725 427.4949,312.6392 Q426.8101,313.7058 426.8101,315.8059 Q426.8101,317.8977 427.4949,318.9644 Q428.1797,320.031 429.5244,320.031 Q430.1553,320.031 430.7488,319.7612 Q431.3423,319.4915 431.9731,318.9104 Z " fill="#000000"/><text fill="#000000" font-family="sans-serif" font-size="14" lengthAdjust="spacing" textLength="105" x="443.5" y="320.781">CompanyRoute</text><line style="stroke:#181818;stroke-width:0.5;" x1="415.5" x2="550.5" y1="331.49" y2="331.49"/><rect fill="none" height="6" style="stroke:#C82930;stroke-width:1.0;" width="6" x="422.5" y="342.2341"/><text fill="#000000" font-family="sans-serif" font-size="14" lengthAdjust="spacing" textLength="86" x="434.5" y="349.0252">name: string</text><rect fill="none" height="6" style="stroke:#C82930;stroke-width:1.0;" width="6" x="422.5" y="358.7224"/><text fill="#000000" font-family="sans-serif" font-size="14" lengthAdjust="spacing" textLength="102" x="434.5" y="365.5134">address: string</text><rect fill="none" height="6" style="stroke:#C82930;stroke-width:1.0;" width="6" x="422.5" y="375.2107"/><text fill="#000000" font-family="sans-serif" font-size="14" lengthAdjust="spacing" textLength="85" x="434.5" y="382.0017">email: string</text><rect fill="none" height="6" style="stroke:#C82930;stroke-width:1.0;" width="6" x="422.5" y="391.699"/><text fill="#000000" font-family="sans-serif" font-size="14" lengthAdjust="spacing" textLength="92" x="434.5" y="398.49">phone: string</text><line style="stroke:#181818;stroke-width:0.5;" x1="415.5" x2="550.5" y1="405.4431" y2="405.4431"/></g><!--class DataBase--><g id="elem_DataBase"><rect codeLine="80" fill="#F1F1F1" height="64.4883" id="DataBase" rx="2.5" ry="2.5" style="stroke:#181818;stroke-width:0.5;" width="156" x="1184" y="505.22"/><ellipse cx="1226.9" cy="521.22" fill="#ADD1B2" rx="11" ry="11" style="stroke:#181818;stroke-width:1.0;"/><path d="M1229.3731,527.3631 Q1228.7921,527.6619 1228.1529,527.8113 Q1227.5138,527.9607 1226.8082,527.9607 Q1224.3014,527.9607 1222.9815,526.3089 Q1221.6617,524.657 1221.6617,521.5359 Q1221.6617,518.4065 1222.9815,516.7547 Q1224.3014,515.1028 1226.8082,515.1028 Q1227.5138,515.1028 1228.1612,515.2522 Q1228.8087,515.4016 1229.3731,515.7005 L1229.3731,518.4231 Q1228.7423,517.8421 1228.1488,517.5723 Q1227.5553,517.3025 1226.9244,517.3025 Q1225.5797,517.3025 1224.8949,518.3692 Q1224.2101,519.4358 1224.2101,521.5359 Q1224.2101,523.6277 1224.8949,524.6944 Q1225.5797,525.761 1226.9244,525.761 Q1227.5553,525.761 1228.1488,525.4912 Q1228.7423,525.2215 1229.3731,524.6404 Z " fill="#000000"/><text fill="#000000" font-family="sans-serif" font-size="14" lengthAdjust="spacing" textLength="62" x="1247.1" y="526.511">DataBase</text><line style="stroke:#181818;stroke-width:0.5;" x1="1185" x2="1339" y1="537.22" y2="537.22"/><rect fill="none" height="6" style="stroke:#C82930;stroke-width:1.0;" width="6" x="1192" y="547.9641"/><text fill="#000000" font-family="sans-serif" font-size="14" lengthAdjust="spacing" textLength="130" x="1204" y="554.7552">connectLink: string</text><line style="stroke:#181818;stroke-width:0.5;" x1="1185" x2="1339" y1="561.7083" y2="561.7083"/></g><!--link EmployeeRoute to CompanyRoute--><g id="link_EmployeeRoute_CompanyRoute"><path codeLine="84" d="M226.44,261.1 C284.79,282.87 360.4,311.09 414.2,331.16 " fill="none" id="EmployeeRoute-CompanyRoute" style="stroke:#181818;stroke-width:1.0;"/><text fill="#000000" font-family="sans-serif" font-size="13" lengthAdjust="spacing" textLength="8" x="234.5364" y="281.3489">1</text><text fill="#000000" font-family="sans-serif" font-size="13" lengthAdjust="spacing" textLength="8" x="398.6925" y="341.9081">1</text></g><!--link EmployeeRoute to Employee--><g id="link_EmployeeRoute_Employee"><path codeLine="85" d="M269.49,221.74 C388.25,215.61 564.66,206.52 696.65,199.71 " fill="none" id="EmployeeRoute-Employee" style="stroke:#181818;stroke-width:1.0;"/><text fill="#000000" font-family="sans-serif" font-size="13" lengthAdjust="spacing" textLength="8" x="276.8996" y="234.3593">1</text><text fill="#000000" font-family="sans-serif" font-size="13" lengthAdjust="spacing" textLength="8" x="680.8727" y="212.9915">1</text></g><!--reverse link EmployeeRoute to EmployeService--><g id="link_EmployeeRoute_EmployeService"><path codeLine="86" d="M239.0448,191.7142 C269.9048,180.3842 294.21,171.45 328.78,158.75 " fill="none" id="EmployeeRoute-backto-EmployeService" style="stroke:#181818;stroke-width:1.0;"/><polygon fill="#181818" points="227.78,195.85,234.791,197.537,239.0448,191.7142,232.0338,190.0272,227.78,195.85" style="stroke:#181818;stroke-width:1.0;"/><text fill="#000000" font-family="sans-serif" font-size="13" lengthAdjust="spacing" textLength="8" x="236.6679" y="185.5515">1</text><text fill="#000000" font-family="sans-serif" font-size="13" lengthAdjust="spacing" textLength="8" x="313.1162" y="174.4155">1</text></g><!--reverse link Employee to Appointment--><g id="link_Employee_Appointment"><path codeLine="87" d="M1069.44,190.47 C1089.29,190.47 1097.3,190.47 1116.63,190.47 " fill="none" id="Employee-backto-Appointment" style="stroke:#181818;stroke-width:1.0;"/><polygon fill="#181818" points="1057.44,190.47,1063.44,194.47,1069.44,190.47,1063.44,186.47,1057.44,190.47" style="stroke:#181818;stroke-width:1.0;"/><text fill="#000000" font-family="sans-serif" font-size="13" lengthAdjust="spacing" textLength="8" x="1065.2211" y="203.3617">1</text><text fill="#000000" font-family="sans-serif" font-size="13" lengthAdjust="spacing" textLength="20" x="1089.1043" y="203.4095">*..*</text></g><!--reverse link Appointment to Service--><g id="link_Appointment_Service"><path codeLine="88" d="M1418.7929,146.1595 C1438.6729,140.5095 1447.37,138.03 1466.74,132.52 " fill="none" id="Appointment-backto-Service" style="stroke:#181818;stroke-width:1.0;"/><polygon fill="none" points="1407.25,149.44,1414.115,151.6474,1418.7929,146.1595,1411.9279,143.9521,1407.25,149.44" style="stroke:#181818;stroke-width:1.0;"/><text fill="#000000" font-family="sans-serif" font-size="13" lengthAdjust="spacing" textLength="8" x="1414.9457" y="160.2878">1</text><text fill="#000000" font-family="sans-serif" font-size="13" lengthAdjust="spacing" textLength="8" x="1451.1374" y="147.6301">1</text></g><!--link CompanyRoute to AppointmentRoute--><g id="link_CompanyRoute_AppointmentRoute"><path codeLine="89" d="M551.83,362.7 C610.12,368.05 695.34,375.87 763.78,382.16 " fill="none" id="CompanyRoute-AppointmentRoute" style="stroke:#181818;stroke-width:1.0;"/><text fill="#000000" font-family="sans-serif" font-size="13" lengthAdjust="spacing" textLength="8" x="559.3406" y="376.7006">1</text><text fill="#000000" font-family="sans-serif" font-size="13" lengthAdjust="spacing" textLength="8" x="747.9043" y="394.5501">1</text></g><!--link Employee to Service--><g id="link_Employee_Service"><path codeLine="90" d="M1021.05,83.71 C1051.31,66.29 1084.09,50.88 1117,41.47 C1240.91,6 1279.63,21.73 1407,41.47 C1426.55,44.5 1446.88,49.28 1466.54,54.81 " fill="none" id="Employee-Service" style="stroke:#181818;stroke-width:1.0;"/><text fill="#000000" font-family="sans-serif" font-size="13" lengthAdjust="spacing" textLength="8" x="1022.8973" y="73.256">1</text><text fill="#000000" font-family="sans-serif" font-size="13" lengthAdjust="spacing" textLength="22" x="1436.9111" y="65.2971">1..*</text></g><!--link AppointmentRoute to Appointment--><g id="link_AppointmentRoute_Appointment"><path codeLine="91" d="M978.54,351.5 C1004.43,340.18 1032.02,327.42 1057,314.47 C1076.59,304.3 1096.86,293 1116.67,281.48 " fill="none" id="AppointmentRoute-Appointment" style="stroke:#181818;stroke-width:1.0;"/><text fill="#000000" font-family="sans-serif" font-size="13" lengthAdjust="spacing" textLength="8" x="986.0854" y="341.3685">1</text><text fill="#000000" font-family="sans-serif" font-size="13" lengthAdjust="spacing" textLength="22" x="1087.0978" y="298.8278">1..*</text></g><!--reverse link AppointmentRoute to ServiceService--><g id="link_AppointmentRoute_ServiceService"><path codeLine="92" d="M1002.3019,399.2793 C1050.6419,401.9393 1095.17,404.37 1144.02,407.05 " fill="none" id="AppointmentRoute-backto-ServiceService" style="stroke:#181818;stroke-width:1.0;"/><polygon fill="none" points="990.32,398.62,996.0912,402.9436,1002.3019,399.2793,996.5307,394.9557,990.32,398.62" style="stroke:#181818;stroke-width:1.0;"/><text fill="#000000" font-family="sans-serif" font-size="13" lengthAdjust="spacing" textLength="8" x="997.8358" y="412.0729">1</text><text fill="#000000" font-family="sans-serif" font-size="13" lengthAdjust="spacing" textLength="22" x="1114.5633" y="419.69">1..*</text></g><!--reverse link AppointmentRoute to DataBase--><g id="link_AppointmentRoute_DataBase"><path codeLine="93" d="M989.3443,437.9151 C1031.9643,455.0451 1071.18,470.41 1117,487.47 C1138.58,495.5 1162.12,503.84 1183.8,511.36 " fill="none" id="AppointmentRoute-backto-DataBase" style="stroke:#181818;stroke-width:1.0;"/><polygon fill="none" points="978.21,433.44,982.2854,439.389,989.3443,437.9151,985.2689,431.9661,978.21,433.44" style="stroke:#181818;stroke-width:1.0;"/><text fill="#000000" font-family="sans-serif" font-size="13" lengthAdjust="spacing" textLength="8" x="985.0953" y="453.4544">1</text><text fill="#000000" font-family="sans-serif" font-size="13" lengthAdjust="spacing" textLength="8" x="1167.9653" y="522.17">1</text></g><!--SRC=[bLLTRzem57tthx1u2amWO7IQyhIsq6aCD5HeNwOzkCa5h0KxSXocQkf_dvFOiHt22dsWoV6vr-T-9e6jn99ZGNTxYMCg89AKCnGb9Clmx90c_1NWaUSIy5-4rLyVWqRN88uqWh2cQG2z8TzUuzh1XqW0aM2C0kFE-kbMl3oDB-B5aC0bl1r8WsI1nMxJb5Cc3y3a6JZGpr2yV8j3l9Q2ibtt952R8qOEIa1Mykgq4Peqi5GP_-4YRi0aZWLaMGED-24bxBM1kl93z-tdB-Jcsus7s6VFH4SV4HP1SeL1LQah34xJNkJIPDFlbzPanf15WgP5hpPJAigUt2QSI4FE1QcOaXu0kPfN1JjmRRoGfjeoy5qubNV2yATaIYIv8vboQvxA0nrRFJl-k_Nhu_xeQ3386auywU-Ggg5vXwJAf86YH6qnr-5IrSCACnbN0iBoLmD5rdJwAo3X4McftlcwdewrFcXgz-ghSW-1LUDbQAFK15QOTxRGyeAcJhyzhDgWHVarzRXWsTa2t5URm6-ubYbftoEjYsZFcRMkBpAjMryISSRK9s91sM-NxNyeEgCExlVBVwxIywowegUCdaynDQuNRitf3GQzZjkQo6tJWiQrA-F3owAZfZdI_cKbgRpB-3bP0JxjZ2HBvISk_-lPX56l5OI-08iHMYM4oQVb0Xz1PAeDyMWm7eudWu_1Pf_Z1tZ1eniyceIJOJYymRFr1XV7NHHyNIsEOvpnNAXD4zEYh2zvqSXTD2T7WXzpLet9ZnJOVFhT07Z6ZbHmLeOsVrvQmgT9_uxACXmG-7c9fh0bUIALHSHZrJGXVjeyz3-Z1M6xdEoKRs2g8CglK1-u-zj_]--></g></svg>